<?xml version="1.0" encoding="UTF-8"?>
<svg version="1.1" xmlns="http://www.w3.org/2000/svg" width="238" height="25">
<path d="M0 0 C1.45823212 -0.0270043 2.91660675 -0.04639787 4.375 -0.0625 C5.18710938 -0.07410156 5.99921875 -0.08570313 6.8359375 -0.09765625 C9 0 9 0 11 1 C11 1.66 11 2.32 11 3 C10.01 3.495 10.01 3.495 9 4 C8.34444881 6.52733235 8.34444881 6.52733235 8 9 C11.3 9 14.6 9 18 9 C17.67 7.02 17.34 5.04 17 3 C16.34 3 15.68 3 15 3 C15 2.01 15 1.02 15 0 C17.97 0 20.94 0 24 0 C24.33 0.99 24.66 1.98 25 3 C24.34 3 23.68 3 23 3 C23 8.61 23 14.22 23 20 C23.99 20 24.98 20 26 20 C26 20.66 26 21.32 26 22 C22.37 22 18.74 22 15 22 C15 21.34 15 20.68 15 20 C15.66 20 16.32 20 17 20 C17 17.69 17 15.38 17 13 C14.03 13 11.06 13 8 13 C8.33 15.31 8.66 17.62 9 20 C9.66 20 10.32 20 11 20 C11 20.66 11 21.32 11 22 C7.7 22 4.4 22 1 22 C1 21.34 1 20.68 1 20 C1.66 20 2.32 20 3 20 C3 14.39 3 8.78 3 3 C2.01 2.67 1.02 2.34 0 2 C0 1.34 0 0.68 0 0 Z " fill="#EDCA4B" transform="translate(200,3)"/>
<path d="M0 0 C2.24940295 -0.08119503 4.49964871 -0.13927819 6.75 -0.1875 C8.00296875 -0.22230469 9.2559375 -0.25710937 10.546875 -0.29296875 C14.16437419 0.01394577 15.58202318 0.32939874 18 3 C18.43648973 7.58314214 18.63005705 11.05491442 16 15 C19.73021313 19.95562913 19.73021313 19.95562913 25 23 C25 23.66 25 24.32 25 25 C19.89486553 25.70415648 19.89486553 25.70415648 17 25 C15.07700083 23.09405625 13.74142042 21.15010137 12.32421875 18.84765625 C11.05239835 16.69142249 11.05239835 16.69142249 8 16 C8 18.31 8 20.62 8 23 C8.99 23 9.98 23 11 23 C11 23.66 11 24.32 11 25 C7.37 25 3.74 25 0 25 C0 24.34 0 23.68 0 23 C0.66 23 1.32 23 2 23 C2.33 16.4 2.66 9.8 3 3 C2.01 2.67 1.02 2.34 0 2 C0 1.34 0 0.68 0 0 Z M8 3 C8 5.97 8 8.94 8 12 C9.32 12 10.64 12 12 12 C12.33 9.69 12.66 7.38 13 5 C10.525 4.01 10.525 4.01 8 3 Z " fill="#7A5E2F" transform="translate(133,0)"/>
<path d="M0 0 C16.67322835 -0.45130543 16.67322835 -0.45130543 22.375 3.75 C24.44196231 6.61194781 24.85908012 8.47700292 25 12 C24.28297059 15.58514707 23.47297504 17.49706685 20.96484375 20.1640625 C16.92964929 22.66279952 13.82448293 22.45211493 9.1875 22.25 C8.00510742 22.22292969 8.00510742 22.22292969 6.79882812 22.1953125 C4.86535739 22.14844048 2.93251715 22.0767041 1 22 C1 21.34 1 20.68 1 20 C1.66 20 2.32 20 3 20 C3 14.39 3 8.78 3 3 C2.01 3 1.02 3 0 3 C0 2.01 0 1.02 0 0 Z M8 4 C8 8.95 8 13.9 8 19 C14.51752639 19.64715023 14.51752639 19.64715023 17.4375 17.375 C19.49791771 14.24316508 19.6767545 12.68455227 19 9 C17 6 17 6 14 4 C12.02 4 10.04 4 8 4 Z " fill="#56452E" transform="translate(104,3)"/>
<path d="M0 0 C4.06026821 2.03013411 6.65457376 4.42395554 9.75 7.625 C10.25660156 8.140625 10.76320313 8.65625 11.28515625 9.1875 C12.52803902 10.45383339 13.76465276 11.7263144 15 13 C15.33 9.7 15.66 6.4 16 3 C15.01 3 14.02 3 13 3 C13 2.01 13 1.02 13 0 C15.64 0 18.28 0 21 0 C21.33 0.99 21.66 1.98 22 3 C21.34 3 20.68 3 20 3 C20 9.27 20 15.54 20 22 C14.47714999 20.89543 13.43058237 19.88021343 9.6875 15.9375 C8.80449219 15.01839844 7.92148438 14.09929688 7.01171875 13.15234375 C6.01591797 12.08693359 6.01591797 12.08693359 5 11 C4.67 13.97 4.34 16.94 4 20 C4.66 20 5.32 20 6 20 C6 20.66 6 21.32 6 22 C3.03 22 0.06 22 -3 22 C-3 21.34 -3 20.68 -3 20 C-2.34 19.67 -1.68 19.34 -1 19 C-0.67 12.73 -0.34 6.46 0 0 Z " fill="#A48C42" transform="translate(80,3)"/>
<path d="M0 0 C4.06026821 2.03013411 6.65457376 4.42395554 9.75 7.625 C10.25660156 8.140625 10.76320313 8.65625 11.28515625 9.1875 C12.52803902 10.45383339 13.76465276 11.7263144 15 13 C15.33 9.7 15.66 6.4 16 3 C15.01 3 14.02 3 13 3 C13 2.01 13 1.02 13 0 C15.64 0 18.28 0 21 0 C21.33 0.99 21.66 1.98 22 3 C21.34 3 20.68 3 20 3 C20 9.27 20 15.54 20 22 C14.47714999 20.89543 13.43058237 19.88021343 9.6875 15.9375 C8.80449219 15.01839844 7.92148437 14.09929688 7.01171875 13.15234375 C6.01591797 12.08693359 6.01591797 12.08693359 5 11 C4.67 13.97 4.34 16.94 4 20 C4.66 20 5.32 20 6 20 C6 20.66 6 21.32 6 22 C3.03 22 0.06 22 -3 22 C-3 21.34 -3 20.68 -3 20 C-2.34 19.67 -1.68 19.34 -1 19 C-0.67 12.73 -0.34 6.46 0 0 Z " fill="#A48A42" transform="translate(31,3)"/>
<path d="M0 0 C3 1 3 1 4.11914062 3.02539062 C4.63250977 4.32766602 4.63250977 4.32766602 5.15625 5.65625 C5.53910156 6.59597656 5.92195313 7.53570313 6.31640625 8.50390625 C7.10546875 10.50130208 7.89453125 12.49869792 8.68359375 14.49609375 C9.06644531 15.43582031 9.44929688 16.37554688 9.84375 17.34375 C10.35711914 18.64602539 10.35711914 18.64602539 10.88085938 19.97460938 C11.88901957 22.33934816 11.88901957 22.33934816 15 23 C15 23.66 15 24.32 15 25 C11.7 25 8.4 25 5 25 C4.67 22.36 4.34 19.72 4 17 C1.69 17 -0.62 17 -3 17 C-3.79953138 20.28696233 -4.09658936 21.71023192 -3 25 C-5.97 25 -8.94 25 -12 25 C-12 24.34 -12 23.68 -12 23 C-11.54641113 22.55479004 -11.09282227 22.10958008 -10.62548828 21.65087891 C-8.7412054 19.73716295 -7.99657527 18.06873444 -6.9921875 15.5859375 C-6.64542969 14.74289062 -6.29867188 13.89984375 -5.94140625 13.03125 C-5.58949219 12.1546875 -5.23757812 11.278125 -4.875 10.375 C-4.16610438 8.63198066 -3.4552702 6.88974806 -2.7421875 5.1484375 C-2.4313623 4.37677246 -2.12053711 3.60510742 -1.80029297 2.81005859 C-1 1 -1 1 0 0 Z M0 9 C-0.33 10.65 -0.66 12.3 -1 14 C-0.01 14 0.98 14 2 14 C1.67 12.35 1.34 10.7 1 9 C0.67 9 0.34 9 0 9 Z " fill="#916E2C" transform="translate(12,0)"/>
<path d="M0 0 C3 1 3 1 4.04321289 2.75 C4.3499292 3.4925 4.65664551 4.235 4.97265625 5 C5.48602539 6.2065625 5.48602539 6.2065625 6.00976562 7.4375 C6.35716797 8.283125 6.70457031 9.12875 7.0625 10 C7.7558457 11.66911845 8.45479123 13.33592524 9.16015625 15 C9.46574463 15.7425 9.77133301 16.485 10.08618164 17.25 C10.87820307 19.18320062 10.87820307 19.18320062 13 20 C13 20.66 13 21.32 13 22 C10.36 22 7.72 22 5 22 C4.67 20.02 4.34 18.04 4 16 C1.69 16 -0.62 16 -3 16 C-2.67 17.98 -2.34 19.96 -2 22 C-4.97 22 -7.94 22 -11 22 C-11 21.34 -11 20.68 -11 20 C-10.01 20 -9.02 20 -8 20 C-7.608125 18.741875 -7.21625 17.48375 -6.8125 16.1875 C-4.96115906 10.59787448 -2.51454474 5.31731793 0 0 Z M0 9 C-0.33 9.99 -0.66 10.98 -1 12 C-0.01 11.67 0.98 11.34 2 11 C1.34 10.34 0.68 9.68 0 9 Z " fill="#836A32" transform="translate(170,3)"/>
<path d="M0 0 C0.66 0 1.32 0 2 0 C3.33934716 2.95564708 4.67044247 5.9149378 6 8.875 C6.3815625 9.71675781 6.763125 10.55851563 7.15625 11.42578125 C7.5171875 12.23144531 7.878125 13.03710938 8.25 13.8671875 C8.58515625 14.61081543 8.9203125 15.35444336 9.265625 16.12060547 C10 18 10 18 10 20 C10.99 20 11.98 20 13 20 C13 20.66 13 21.32 13 22 C10.03 22 7.06 22 4 22 C3.34 20.02 2.68 18.04 2 16 C0.35 16 -1.3 16 -3 16 C-3 17.98 -3 19.96 -3 22 C-5.64 22 -8.28 22 -11 22 C-11 20 -11 20 -9.61181641 18.60986328 C-9.07991699 18.0786084 -8.54801758 17.54735352 -8 17 C-6.99531818 15.2074919 -6.99531818 15.2074919 -6.2109375 13.2421875 C-5.90929688 12.53449219 -5.60765625 11.82679687 -5.296875 11.09765625 C-4.99265625 10.36417969 -4.6884375 9.63070313 -4.375 8.875 C-1.10472973 1.10472973 -1.10472973 1.10472973 0 0 Z M0 9 C-0.33 9.99 -0.66 10.98 -1 12 C-0.34 12 0.32 12 1 12 C0.67 11.01 0.34 10.02 0 9 Z " fill="#B9AC4E" transform="translate(63,3)"/>
<path d="M0 0 C0.83724609 -0.01224609 1.67449219 -0.02449219 2.53710938 -0.03710938 C3.73883789 -0.04000977 3.73883789 -0.04000977 4.96484375 -0.04296875 C5.70210693 -0.04707764 6.43937012 -0.05118652 7.19897461 -0.05541992 C9.0625 0.1875 9.0625 0.1875 11.0625 2.1875 C11.0625 3.5075 11.0625 4.8275 11.0625 6.1875 C10.0725 6.1875 9.0825 6.1875 8.0625 6.1875 C8.0625 5.5275 8.0625 4.8675 8.0625 4.1875 C6.4125 4.1875 4.7625 4.1875 3.0625 4.1875 C3.0625 9.4675 3.0625 14.7475 3.0625 20.1875 C4.0525 20.1875 5.0425 20.1875 6.0625 20.1875 C6.0625 20.8475 6.0625 21.5075 6.0625 22.1875 C2.7625 22.1875 -0.5375 22.1875 -3.9375 22.1875 C-3.6075 21.1975 -3.2775 20.2075 -2.9375 19.1875 C-2.71031504 16.62115139 -2.52141816 14.07071893 -2.375 11.5 C-2.31022461 10.4471582 -2.31022461 10.4471582 -2.24414062 9.37304688 C-2.1383264 7.64474794 -2.03743419 5.9161489 -1.9375 4.1875 C-4.5775 4.8475 -7.2175 5.5075 -9.9375 6.1875 C-9.980221 4.52138095 -9.97813832 2.85367115 -9.9375 1.1875 C-7.78017167 -0.96982833 -2.98951247 0.00229081 0 0 Z " fill="#CBAA46" transform="translate(188.9375,2.8125)"/>
<path d="M0 0 C2.97 0 5.94 0 9 0 C9.33 0.99 9.66 1.98 10 3 C9.34 3 8.68 3 8 3 C8 8.61 8 14.22 8 20 C8.66 20 9.32 20 10 20 C10 20.66 10 21.32 10 22 C6.7 22 3.4 22 0 22 C0 21.34 0 20.68 0 20 C0.66 20 1.32 20 2 20 C2 14.39 2 8.78 2 3 C1.34 3 0.68 3 0 3 C0 2.01 0 1.02 0 0 Z " fill="#795C2E" transform="translate(228,3)"/>
<path d="M0 0 C0.66 0 1.32 0 2 0 C3.905247 5.10334017 5.42589023 9.46342706 5 15 C3.68 13.35 2.36 11.7 1 10 C0.34 11.32 -0.32 12.64 -1 14 C-0.01 14 0.98 14 2 14 C2 14.66 2 15.32 2 16 C0.02 16 -1.96 16 -4 16 C-4.66 18.64 -5.32 21.28 -6 24 C-6.66 24 -7.32 24 -8 24 C-7.74856945 16.70851407 -5.46878989 5.46878989 0 0 Z " fill="#CFB94D" transform="translate(12,0)"/>
<path d="M0 0 C3.25 1.4375 3.25 1.4375 5.1875 4.6875 C6.19700658 8.2504644 6.74895219 10.77851724 6.25 14.4375 C5.26 15.4275 4.27 16.4175 3.25 17.4375 C3.25 14.4675 3.25 11.4975 3.25 8.4375 C2.59 8.4375 1.93 8.4375 1.25 8.4375 C1.25 6.7875 1.25 5.1375 1.25 3.4375 C-2.05 3.1075 -5.35 2.7775 -8.75 2.4375 C-9.08 5.4075 -9.41 8.3775 -9.75 11.4375 C-10.08 11.4375 -10.41 11.4375 -10.75 11.4375 C-11.08 14.0775 -11.41 16.7175 -11.75 19.4375 C-12.08 19.4375 -12.41 19.4375 -12.75 19.4375 C-12.75 13.1675 -12.75 6.8975 -12.75 0.4375 C-8.73976623 -1.56761688 -4.29999231 -0.64499885 0 0 Z " fill="#E6CC63" transform="translate(120.75,3.5625)"/>
<path d="M0 0 C0.66 0 1.32 0 2 0 C3.33934716 2.95564708 4.67044247 5.9149378 6 8.875 C6.3815625 9.71675781 6.763125 10.55851563 7.15625 11.42578125 C7.5171875 12.23144531 7.878125 13.03710938 8.25 13.8671875 C8.58515625 14.61081543 8.9203125 15.35444336 9.265625 16.12060547 C10 18 10 18 10 20 C10.99 20.33 11.98 20.66 13 21 C10.69 21 8.38 21 6 21 C5.34 18.69 4.68 16.38 4 14 C-0.455 14.495 -0.455 14.495 -5 15 C-5 14.34 -5 13.68 -5 13 C-3.02 12.67 -1.04 12.34 1 12 C1 10.02 1 8.04 1 6 C0.34 6 -0.32 6 -1 6 C-1.042721 4.33388095 -1.04063832 2.66617115 -1 1 C-0.67 0.67 -0.34 0.34 0 0 Z " fill="#E3C652" transform="translate(63,3)"/>
<path d="M0 0 C1.45823212 -0.0270043 2.91660675 -0.04639787 4.375 -0.0625 C5.18710938 -0.07410156 5.99921875 -0.08570313 6.8359375 -0.09765625 C9 0 9 0 11 1 C11 1.66 11 2.32 11 3 C10.01 3.495 10.01 3.495 9 4 C9 5.98 9 7.96 9 10 C8.34 10 7.68 10 7 10 C7 13.3 7 16.6 7 20 C6.01 20 5.02 20 4 20 C3.96261719 18.72382813 3.92523438 17.44765625 3.88671875 16.1328125 C3.82107209 14.46351162 3.7546243 12.79424211 3.6875 11.125 C3.66494141 10.28324219 3.64238281 9.44148437 3.61914062 8.57421875 C3.58369141 7.76855469 3.54824219 6.96289062 3.51171875 6.1328125 C3.48553467 5.38918457 3.45935059 4.64555664 3.43237305 3.87939453 C3.13270409 1.59266174 3.13270409 1.59266174 0 0 Z " fill="#CDAF4B" transform="translate(200,3)"/>
<path d="M0 0 C1.32 0.33 2.64 0.66 4 1 C4 6.94 4 12.88 4 19 C4.99 19 5.98 19 7 19 C7 16.03 7 13.06 7 10 C10.63 10 14.26 10 18 10 C17.67 10.66 17.34 11.32 17 12 C14.03 12 11.06 12 8 12 C8.33 14.31 8.66 16.62 9 19 C9.66 19 10.32 19 11 19 C11 19.66 11 20.32 11 21 C7.7 21 4.4 21 1 21 C1 20.34 1 19.68 1 19 C1.66 19 2.32 19 3 19 C3 13.39 3 7.78 3 2 C2.01 1.67 1.02 1.34 0 1 C0 0.67 0 0.34 0 0 Z " fill="#6A5732" transform="translate(200,4)"/>
<path d="M0 0 C0.66 0 1.32 0 2 0 C2 0.66 2 1.32 2 2 C1.34 2 0.68 2 0 2 C0 7.61 0 13.22 0 19 C0.99 19 1.98 19 3 19 C3 19.66 3 20.32 3 21 C-0.63 21 -4.26 21 -8 21 C-8 20.34 -8 19.68 -8 19 C-7.34 19 -6.68 19 -6 19 C-5.67 17.68 -5.34 16.36 -5 15 C-5 16.32 -5 17.64 -5 19 C-4.01 19 -3.02 19 -2 19 C-2.020625 17.700625 -2.04125 16.40125 -2.0625 15.0625 C-2.0625 2.0625 -2.0625 2.0625 0 0 Z " fill="#58452B" transform="translate(223,4)"/>
<path d="M0 0 C3.6875 -0.3125 3.6875 -0.3125 7 0 C8.4606285 2.64738916 9 3.89448334 9 7 C11.31 7 13.62 7 16 7 C16 7.33 16 7.66 16 8 C13.36 8 10.72 8 8 8 C7.67 6.02 7.34 4.04 7 2 C4.69 2 2.38 2 0 2 C0.33 3.98 0.66 5.96 1 8 C-1.97 8 -4.94 8 -8 8 C-8 7.34 -8 6.68 -8 6 C-7.01 6 -6.02 6 -5 6 C-4.67 5.34 -4.34 4.68 -4 4 C-3.67 4.33 -3.34 4.66 -3 5 C-2.649375 4.175 -2.29875 3.35 -1.9375 2.5 C-1.298125 1.675 -0.65875 0.85 0 0 Z " fill="#463829" transform="translate(167,17)"/>
<path d="M0 0 C2.97 0 5.94 0 9 0 C8.525625 0.886875 8.05125 1.77375 7.5625 2.6875 C5.1668051 8.15691666 5.25661017 14.11566337 5 20 C4.34 20 3.68 20 3 20 C3 14.06 3 8.12 3 2 C2.01 2 1.02 2 0 2 C0 1.34 0 0.68 0 0 Z " fill="#EBD458" transform="translate(228,3)"/>
<path d="M0 0 C2.27057377 -0.05398987 4.54151288 -0.09278742 6.8125 -0.125 C8.07707031 -0.14820312 9.34164062 -0.17140625 10.64453125 -0.1953125 C14 -0 14 -0 17 2 C17.39507893 6.34586828 17.45331002 8.32003497 15 12 C14.34 11.67 13.68 11.34 13 11 C13.061875 10.2575 13.12375 9.515 13.1875 8.75 C12.96098229 5.42774033 12.29518219 4.3743264 10 2 C7.50592748 1.3049261 7.50592748 1.3049261 4.8125 1.25 C3.46091797 1.16492188 3.46091797 1.16492188 2.08203125 1.078125 C1.39496094 1.05234375 0.70789063 1.0265625 0 1 C0 0.67 0 0.34 0 0 Z " fill="#C6A758" transform="translate(133,0)"/>
<path d="M0 0 C0.33 0.66 0.66 1.32 1 2 C1.66 2 2.32 2 3 2 C2.67 3.32 2.34 4.64 2 6 C1.34 5.34 0.68 4.68 0 4 C-0.66 5.65 -1.32 7.3 -2 9 C-0.68 9 0.64 9 2 9 C2 9.66 2 10.32 2 11 C1.236875 11.061875 0.47375 11.12375 -0.3125 11.1875 C-3.23051809 11.76935262 -3.23051809 11.76935262 -4.8125 14.5625 C-5.204375 15.366875 -5.59625 16.17125 -6 17 C-7.30249153 13.40144968 -6.69931441 11.41900527 -5.25 7.9375 C-4.73179687 6.65166016 -4.73179687 6.65166016 -4.203125 5.33984375 C-3.03735083 3.07264009 -1.90347394 1.66827457 0 0 Z " fill="#D4C558" transform="translate(170,6)"/>
<path d="M0 0 C0.99 0 1.98 0 3 0 C2.67 6.93 2.34 13.86 2 21 C1.34 21 0.68 21 0 21 C0 14.07 0 7.14 0 0 Z " fill="#EDD853" transform="translate(136,2)"/>
<path d="M0 0 C2.64 0 5.28 0 8 0 C8.66 2.31 9.32 4.62 10 7 C12.31 7 14.62 7 17 7 C17 7.33 17 7.66 17 8 C14.03 8 11.06 8 8 8 C7.34 6.02 6.68 4.04 6 2 C4.35 2 2.7 2 1 2 C1 3.98 1 5.96 1 8 C-1.64 8 -4.28 8 -7 8 C-7 7.67 -7 7.34 -7 7 C-5.35 7 -3.7 7 -2 7 C-1.34 4.69 -0.68 2.38 0 0 Z " fill="#4F3C2A" transform="translate(59,17)"/>
<path d="M0 0 C4 2 4 2 5 4 C3.68 3.67 2.36 3.34 1 3 C1 8.61 1 14.22 1 20 C2.65 20 4.3 20 6 20 C6 20.66 6 21.32 6 22 C3.03 22 0.06 22 -3 22 C-3 21.34 -3 20.68 -3 20 C-2.34 19.67 -1.68 19.34 -1 19 C-0.67 12.73 -0.34 6.46 0 0 Z " fill="#CBA73E" transform="translate(80,3)"/>
<path d="M0 0 C1.32 0.66 2.64 1.32 4 2 C3.01 2.33 2.02 2.66 1 3 C1.33 8.28 1.66 13.56 2 19 C3.32 19.33 4.64 19.66 6 20 C6 20.66 6 21.32 6 22 C3.03 22 0.06 22 -3 22 C-3 21.34 -3 20.68 -3 20 C-2.34 19.67 -1.68 19.34 -1 19 C-0.67 12.73 -0.34 6.46 0 0 Z " fill="#C7A843" transform="translate(31,3)"/>
<path d="M0 0 C4.48320733 1.36986891 6.2128011 3.31370468 9 7 C11.12603185 8.76323505 11.12603185 8.76323505 13 10 C9.875 10.5 9.875 10.5 6 10 C3.5118883 7.63602403 1.64782223 5.00591748 0 2 C0 1.34 0 0.68 0 0 Z " fill="#C8A93C" transform="translate(145,14)"/>
<path d="M0 0 C0.66 0 1.32 0 2 0 C4.51878373 2.83363169 6.35986019 5.60256754 8 9 C8.66 9.66 9.32 10.32 10 11 C7.69 11 5.38 11 3 11 C2.01 7.37 1.02 3.74 0 0 Z " fill="#C5A53C" transform="translate(173,13)"/>
<path d="M0 0 C0.66 0 1.32 0 2 0 C3.905247 5.10334017 5.42589023 9.46342706 5 15 C1 10.5 1 10.5 1 6 C0.34 6 -0.32 6 -1 6 C-1.042721 4.33388095 -1.04063832 2.66617115 -1 1 C-0.67 0.67 -0.34 0.34 0 0 Z " fill="#EED250" transform="translate(12,0)"/>
<path d="M0 0 C2.64 0 5.28 0 8 0 C8 0.33 8 0.66 8 1 C5.69 1 3.38 1 1 1 C0.20046862 4.28696233 -0.09658936 5.71023192 1 9 C-1.97 9 -4.94 9 -8 9 C-8 8.34 -8 7.68 -8 7 C-6 5.375 -6 5.375 -4 4 C-4 5.32 -4 6.64 -4 8 C-3.34 8 -2.68 8 -2 8 C-1.7834375 6.576875 -1.7834375 6.576875 -1.5625 5.125 C-1 2 -1 2 0 0 Z " fill="#4C3F2C" transform="translate(8,16)"/>
<path d="M0 0 C0.66 0 1.32 0 2 0 C3.79392044 3.81208094 4.45791808 6.78715363 4 11 C3.01 11.99 2.02 12.98 1 14 C0.67 9.38 0.34 4.76 0 0 Z " fill="#F1CB50" transform="translate(123,7)"/>
<path d="M0 0 C1.32 0 2.64 0 4 0 C4 6.6 4 13.2 4 20 C4.66 20.33 5.32 20.66 6 21 C4.35 21 2.7 21 1 21 C1.66 20.67 2.32 20.34 3 20 C3 14.39 3 8.78 3 3 C2.01 3 1.02 3 0 3 C0 2.01 0 1.02 0 0 Z " fill="#B28F41" transform="translate(104,3)"/>
<path d="M0 0 C0.66 0.33 1.32 0.66 2 1 C2 2.32 2 3.64 2 5 C1.01 5 0.02 5 -1 5 C-1 4.34 -1 3.68 -1 3 C-2.65 3 -4.3 3 -6 3 C-6 8.28 -6 13.56 -6 19 C-6.33 19 -6.66 19 -7 19 C-7 13.39 -7 7.78 -7 2 C-4.69 2 -2.38 2 0 2 C0 1.34 0 0.68 0 0 Z " fill="#352B27" transform="translate(198,4)"/>
<path d="M0 0 C0.33 0.99 0.66 1.98 1 3 C1.66 3 2.32 3 3 3 C2.125 8.75 2.125 8.75 1 11 C-0.32 10.67 -1.64 10.34 -3 10 C-2.01 6.7 -1.02 3.4 0 0 Z " fill="#837840" transform="translate(10,3)"/>
<path d="M0 0 C2.97 0 5.94 0 9 0 C8.67 0.66 8.34 1.32 8 2 C7.77532169 3.53668865 7.59203195 5.07968054 7.4375 6.625 C7.31181641 7.85089844 7.31181641 7.85089844 7.18359375 9.1015625 C7.12300781 9.72804688 7.06242188 10.35453125 7 11 C6.67 11 6.34 11 6 11 C6 8.03 6 5.06 6 2 C5.01 2 4.02 2 3 2 C3 3.65 3 5.3 3 7 C2.67 5.68 2.34 4.36 2 3 C1.34 3 0.68 3 0 3 C0 2.01 0 1.02 0 0 Z " fill="#A98D55" transform="translate(215,3)"/>
<path d="M0 0 C2.475 0.495 2.475 0.495 5 1 C4.67 5.95 4.34 10.9 4 16 C3.01 15.67 2.02 15.34 1 15 C1.33 14.34 1.66 13.68 2 13 C2.22622081 11.29636178 2.40888473 9.58671299 2.5625 7.875 C2.68818359 6.50988281 2.68818359 6.50988281 2.81640625 5.1171875 C2.87699219 4.41851562 2.93757813 3.71984375 3 3 C2.01 3 1.02 3 0 3 C0 2.01 0 1.02 0 0 Z " fill="#A88C44" transform="translate(93,3)"/>
<path d="M0 0 C0.33 0 0.66 0 1 0 C1 2.64 1 5.28 1 8 C3.31 8 5.62 8 8 8 C8 8.66 8 9.32 8 10 C4.7 10 1.4 10 -2 10 C-1.34 6.7 -0.68 3.4 0 0 Z " fill="#927A38" transform="translate(187,15)"/>
<path d="M0 0 C2 3 2 3 2.9375 5.125 C3.91908645 7.34495729 3.91908645 7.34495729 7 8 C7 8.66 7 9.32 7 10 C3.7 10 0.4 10 -3 10 C-1.68 9.34 -0.36 8.68 1 8 C0.67 5.36 0.34 2.72 0 0 Z " fill="#654C2B" transform="translate(20,15)"/>
<path d="M0 0 C2.475 0.495 2.475 0.495 5 1 C4.67 5.95 4.34 10.9 4 16 C3.34 16 2.68 16 2 16 C2.33 11.71 2.66 7.42 3 3 C2.01 3 1.02 3 0 3 C0 2.01 0 1.02 0 0 Z " fill="#A08847" transform="translate(44,3)"/>
<path d="M0 0 C3.42931954 3.7559214 4.56429083 8.23466745 6 13 C4.078125 12.2109375 4.078125 12.2109375 2 11 C0.55760783 7.10554113 0 4.16477964 0 0 Z " fill="#795A2B" transform="translate(67,10)"/>
<path d="M0 0 C0.99 0.33 1.98 0.66 3 1 C3.625 3.8125 3.625 3.8125 4 7 C3.01 8.485 3.01 8.485 2 10 C1.34 9.67 0.68 9.34 0 9 C0 6.03 0 3.06 0 0 Z " fill="#F3D963" transform="translate(146,2)"/>
<path d="M0 0 C3.0916909 2.52956528 3.90931332 5.22454612 5 9 C6.65 9.33 8.3 9.66 10 10 C10 10.33 10 10.66 10 11 C7.69 11 5.38 11 3 11 C0 4.5 0 4.5 0 0 Z " fill="#F0D449" transform="translate(66,13)"/>
<path d="M0 0 C0.33 1.32 0.66 2.64 1 4 C2.65 4 4.3 4 6 4 C6 4.66 6 5.32 6 6 C3.03 6 0.06 6 -3 6 C-3 5.34 -3 4.68 -3 4 C-2.34 3.67 -1.68 3.34 -1 3 C-0.67 2.01 -0.34 1.02 0 0 Z " fill="#92793D" transform="translate(80,19)"/>
<path d="M0 0 C3.0625 0.25 3.0625 0.25 6 1 C6.33 1.66 6.66 2.32 7 3 C6.34 3 5.68 3 5 3 C5 4.65 5 6.3 5 8 C4.67 8 4.34 8 4 8 C4 6.35 4 4.7 4 3 C1.03 2.505 1.03 2.505 -2 2 C-1.34 1.34 -0.68 0.68 0 0 Z " fill="#BD993C" transform="translate(118,4)"/>
<path d="M0 0 C2.76477453 2.76477453 2.52458441 5.1966753 3 9 C3.33 9.66 3.66 10.32 4 11 C2.68 10.67 1.36 10.34 0 10 C0 6.7 0 3.4 0 0 Z " fill="#E6A92E" transform="translate(109,13)"/>
<path d="M0 0 C1.98 0.66 3.96 1.32 6 2 C6 2.66 6 3.32 6 4 C3.03 4 0.06 4 -3 4 C-3 3.34 -3 2.68 -3 2 C-2.01 2 -1.02 2 0 2 C0 1.34 0 0.68 0 0 Z " fill="#876D3A" transform="translate(162,21)"/>
<path d="M0 0 C0 0.66 0 1.32 0 2 C-2.97 2 -5.94 2 -9 2 C-9 1.34 -9 0.68 -9 0 C-5.93109813 -1.53445094 -3.29905734 -0.54984289 0 0 Z " fill="#8B7038" transform="translate(37,23)"/>
<path d="M0 0 C0.33 0.99 0.66 1.98 1 3 C1.66 3 2.32 3 3 3 C2.42655063 5.86724686 2.1385485 6.8614515 0 9 C-1.125 6.75 -1.125 6.75 -2 4 C-1.125 1.6875 -1.125 1.6875 0 0 Z " fill="#6E6338" transform="translate(61,6)"/>
<path d="M0 0 C0.66 0 1.32 0 2 0 C2 0.99 2 1.98 2 3 C2.66 3 3.32 3 4 3 C4.33 4.65 4.66 6.3 5 8 C4.01 8 3.02 8 2 8 C0.74335022 5.09399739 0 3.20395416 0 0 Z " fill="#F7DB4C" transform="translate(17,16)"/>
<path d="M0 0 C0.33 0 0.66 0 1 0 C1.6875 3.3125 1.6875 3.3125 2 7 C0.5625 8.9375 0.5625 8.9375 -1 10 C-1.99 9.67 -2.98 9.34 -4 9 C-3.525625 8.62875 -3.05125 8.2575 -2.5625 7.875 C-0.47794198 5.37353038 -0.35378509 3.18406582 0 0 Z " fill="#AE963E" transform="translate(123,12)"/>
<path d="M0 0 C0.99 0 1.98 0 3 0 C2.67 2.64 2.34 5.28 2 8 C1.34 7.67 0.68 7.34 0 7 C0 4.69 0 2.38 0 0 Z " fill="#F3E05A" transform="translate(218,5)"/>
<path d="M0 0 C0.66 0 1.32 0 2 0 C3.0625 1.8125 3.0625 1.8125 4 4 C3.67 4.99 3.34 5.98 3 7 C2.34 5.68 1.68 4.36 1 3 C0.34 3 -0.32 3 -1 3 C-0.67 2.01 -0.34 1.02 0 0 Z " fill="#937632" transform="translate(63,3)"/>
</svg>
